<?xml version="1.0" encoding="UTF-8"?>
<svg xmlns="http://www.w3.org/2000/svg" xmlns:xlink="http://www.w3.org/1999/xlink" viewBox="0 0 500 500" width="500px" height="500px">
<g id="surface39558862">
<path style=" stroke:none;fill-rule:nonzero;fill:rgb(68.627453%,48.627451%,48.627451%);fill-opacity:1;" d="M 430.300781 278.019531 C 412.828125 278.109375 397.691406 282.308594 385 288.558594 C 380.359375 279.300781 375.660156 271.148438 374.871094 265.089844 C 373.949219 258.019531 372.878906 253.800781 373.988281 245.371094 C 375.101562 236.941406 379.980469 225.011719 379.898438 224.121094 C 379.828125 223.230469 378.808594 218.941406 368.730469 218.859375 C 358.648438 218.789062 350.03125 220.800781 349.011719 223.460938 C 347.988281 226.121094 346.050781 232.109375 344.851562 238.359375 C 343.078125 247.5 324.730469 280.101562 314.300781 297.148438 C 310.890625 290.488281 307.988281 284.628906 307.390625 279.988281 C 306.46875 272.921875 305.398438 268.699219 306.511719 260.269531 C 307.621094 251.839844 312.5 239.910156 312.421875 239.019531 C 312.351562 238.128906 311.328125 233.839844 301.25 233.761719 C 291.171875 233.691406 282.550781 235.699219 281.53125 238.359375 C 280.511719 241.019531 279.429688 247.238281 277.371094 253.261719 C 275.300781 259.28125 250.898438 313.648438 244.511719 327.738281 C 241.25 334.921875 238.421875 340.691406 236.421875 344.628906 C 236.410156 344.621094 236.410156 344.609375 236.410156 344.609375 C 236.410156 344.609375 236.289062 344.871094 236.070312 345.320312 C 234.359375 348.671875 233.339844 350.53125 233.339844 350.53125 C 233.339844 350.53125 233.351562 350.558594 233.371094 350.601562 C 232.011719 353.058594 230.558594 355.351562 229.839844 355.351562 C 229.339844 355.351562 228.328125 348.789062 230.058594 339.800781 C 233.691406 320.941406 242.410156 291.519531 242.328125 290.511719 C 242.289062 289.988281 243.949219 284.871094 236.628906 282.179688 C 229.519531 279.578125 226.980469 283.921875 226.328125 283.929688 C 225.699219 283.941406 225.230469 285.460938 225.230469 285.460938 C 225.230469 285.460938 233.160156 252.378906 210.109375 252.378906 C 195.710938 252.378906 175.75 268.140625 165.910156 282.421875 C 159.710938 285.800781 146.429688 293.050781 132.339844 300.789062 C 126.929688 303.761719 121.410156 306.800781 116.171875 309.691406 C 115.808594 309.300781 115.460938 308.898438 115.089844 308.511719 C 87.148438 278.699219 35.511719 257.621094 37.699219 217.550781 C 38.5 202.980469 43.558594 164.621094 136.941406 118.089844 C 213.429688 79.96875 274.671875 90.460938 285.25 113.710938 C 300.371094 146.921875 252.519531 208.648438 173.089844 217.550781 C 142.820312 220.941406 126.890625 209.210938 122.921875 204.839844 C 118.75 200.238281 118.128906 200.03125 116.570312 200.898438 C 114.03125 202.308594 115.640625 206.371094 116.570312 208.789062 C 118.941406 214.960938 128.671875 225.910156 145.269531 231.351562 C 159.871094 236.140625 195.398438 238.769531 238.378906 222.148438 C 286.511719 203.53125 324.089844 151.738281 313.058594 108.449219 C 301.828125 64.421875 228.828125 49.949219 159.738281 74.488281 C 118.621094 89.101562 74.109375 112.03125 42.101562 141.960938 C 4.039062 177.558594 -2.019531 208.539062 0.480469 221.480469 C 9.371094 267.480469 72.761719 297.429688 98.148438 319.628906 C 96.898438 320.320312 95.71875 320.96875 94.648438 321.558594 C 81.921875 327.859375 33.601562 353.148438 21.511719 379.871094 C 7.800781 410.179688 23.691406 431.929688 34.21875 434.859375 C 66.820312 443.929688 100.28125 427.609375 118.261719 400.789062 C 136.238281 373.980469 134.039062 339.070312 125.789062 323.128906 C 125.691406 322.929688 125.570312 322.738281 125.46875 322.539062 C 128.761719 320.589844 132.109375 318.621094 135.429688 316.671875 C 141.910156 312.871094 148.269531 309.320312 153.789062 306.308594 C 150.699219 314.769531 148.441406 324.910156 147.261719 339.558594 C 145.878906 356.769531 152.929688 379.011719 162.160156 387.761719 C 166.21875 391.609375 171.109375 391.699219 174.210938 391.699219 C 184.949219 391.699219 189.851562 382.769531 195.238281 372.199219 C 201.859375 359.238281 207.730469 344.160156 207.730469 344.160156 C 207.730469 344.160156 200.359375 384.910156 220.441406 384.910156 C 227.75 384.910156 235.109375 375.421875 238.390625 370.589844 C 238.398438 370.640625 238.398438 370.671875 238.398438 370.671875 C 238.398438 370.671875 238.589844 370.359375 238.960938 369.71875 C 239.71875 368.558594 240.148438 367.820312 240.148438 367.820312 C 240.148438 367.820312 240.171875 367.738281 240.191406 367.609375 C 243.128906 362.511719 249.648438 350.871094 259.429688 331.671875 C 272.058594 306.871094 284.179688 275.808594 284.179688 275.808594 C 284.179688 275.808594 285.308594 283.410156 289 295.960938 C 291.171875 303.351562 295.789062 311.519531 299.429688 319.351562 C 296.5 323.421875 294.699219 325.75 294.699219 325.75 C 294.699219 325.75 294.71875 325.789062 294.75 325.871094 C 292.410156 328.980469 289.78125 332.328125 287.03125 335.609375 C 277.058594 347.488281 265.179688 361.050781 263.589844 364.96875 C 261.71875 369.578125 262.160156 372.980469 265.78125 375.699219 C 268.421875 377.691406 273.128906 378 278.050781 377.671875 C 287.011719 377.070312 293.320312 374.839844 296.429688 373.488281 C 301.28125 371.78125 306.929688 369.078125 312.230469 365.179688 C 322.011719 357.988281 327.910156 347.699219 327.351562 334.070312 C 327.039062 326.558594 324.640625 319.121094 321.609375 312.089844 C 322.5 310.808594 323.390625 309.53125 324.28125 308.21875 C 339.699219 285.671875 351.660156 260.898438 351.660156 260.898438 C 351.660156 260.898438 352.789062 268.5 356.480469 281.050781 C 358.351562 287.410156 362.039062 294.339844 365.351562 301.140625 C 350.851562 312.921875 341.859375 326.609375 338.730469 335.589844 C 332.960938 352.199219 337.480469 359.730469 345.960938 361.441406 C 349.800781 362.21875 355.230469 360.460938 359.308594 358.730469 C 364.390625 357.050781 370.488281 354.238281 376.191406 350.050781 C 385.96875 342.859375 395.378906 332.789062 394.808594 319.160156 C 394.550781 312.960938 392.871094 306.800781 390.589844 300.878906 C 402.878906 295.761719 418.800781 292.910156 439.070312 295.28125 C 482.558594 300.359375 491.089844 327.511719 489.460938 338.871094 C 487.828125 350.238281 478.710938 356.480469 475.660156 358.371094 C 472.609375 360.261719 471.679688 360.910156 471.941406 362.308594 C 472.308594 364.351562 473.71875 364.269531 476.320312 363.828125 C 479.898438 363.230469 499.148438 354.589844 499.980469 333.609375 C 501.019531 307.03125 475.5 277.78125 430.300781 278.019531 Z M 95.121094 391.019531 C 80.71875 406.730469 60.589844 412.671875 51.960938 407.671875 C 42.640625 402.269531 46.328125 379.128906 64.011719 362.460938 C 74.78125 352.300781 88.691406 342.941406 97.921875 337.171875 C 100.019531 335.910156 103.101562 334.050781 106.851562 331.800781 C 107.46875 331.449219 107.820312 331.25 107.820312 331.25 L 107.808594 331.230469 C 108.53125 330.800781 109.28125 330.351562 110.039062 329.890625 C 116.46875 353.628906 110.238281 374.53125 95.121094 391.019531 Z M 200.050781 319.679688 C 195.03125 331.910156 184.53125 363.199219 178.140625 361.519531 C 172.648438 360.078125 169.308594 336.289062 177.039062 312.890625 C 180.929688 301.109375 189.238281 287.03125 194.128906 281.558594 C 201.988281 272.769531 210.648438 269.890625 212.75 273.460938 C 215.441406 278 203.199219 312.011719 200.050781 319.679688 Z M 286.75 361.050781 C 284.621094 362.160156 282.671875 362.859375 281.769531 362.320312 C 281.101562 361.921875 282.648438 360.460938 282.648438 360.460938 C 282.648438 360.460938 293.488281 348.789062 297.769531 343.480469 C 300.25 340.390625 303.140625 336.71875 306.269531 332.621094 C 306.300781 333.03125 306.308594 333.441406 306.308594 333.839844 C 306.269531 347.820312 292.769531 357.25 286.75 361.050781 Z M 353.539062 345.820312 C 351.949219 344.691406 352.21875 341.039062 357.429688 329.679688 C 359.480469 325.21875 364.148438 317.699219 372.28125 310.519531 C 373.21875 313.46875 373.800781 316.300781 373.78125 318.941406 C 373.671875 336.53125 361.121094 343.101562 353.539062 345.820312 Z M 353.539062 345.820312 "/>
</g>
</svg>
